<?xml version="1.0" encoding="utf-8"?>
<!-- Generator: Adobe Illustrator 16.0.0, SVG Export Plug-In . SVG Version: 6.00 Build 0)  -->
<!DOCTYPE svg PUBLIC "-//W3C//DTD SVG 1.1//EN" "http://www.w3.org/Graphics/SVG/1.1/DTD/svg11.dtd" [
	<!ENTITY ns_flows "http://ns.adobe.com/Flows/1.0/">
	<!ENTITY ns_extend "http://ns.adobe.com/Extensibility/1.0/">
	<!ENTITY ns_ai "http://ns.adobe.com/AdobeIllustrator/10.0/">
	<!ENTITY ns_graphs "http://ns.adobe.com/Graphs/1.0/">
]>
<svg version="1.1" id="Layer_1" xmlns:x="&ns_extend;" xmlns:i="&ns_ai;" xmlns:graph="&ns_graphs;"
	 xmlns="http://www.w3.org/2000/svg" xmlns:xlink="http://www.w3.org/1999/xlink" xmlns:a="http://ns.adobe.com/AdobeSVGViewerExtensions/3.0/"
	 x="0px" y="0px" width="49.138px" height="43.966px" viewBox="0 0 49.138 43.966" enable-background="new 0 0 49.138 43.966"
	 xml:space="preserve">
<g>
	<path fill="#1DAFBD" d="M7.988,33.808V11.623c0-1.833,0.651-3.4,1.953-4.702s2.869-1.953,4.703-1.953h22.184
		c1.833,0,3.4,0.651,4.703,1.953c1.301,1.302,1.952,2.869,1.952,4.702v22.185c0,1.833-0.651,3.4-1.952,4.702
		c-1.303,1.302-2.87,1.953-4.703,1.953h-4.437v-14.05h4.691l0.693-5.177h-5.384v-3.305c0-0.832,0.216-1.471,0.647-1.918
		c0.431-0.446,1.17-0.67,2.218-0.67l3.05-0.023v-4.783c-1.479-0.139-2.865-0.208-4.159-0.208c-2.095,0-3.774,0.62-5.038,1.86
		s-1.895,2.978-1.895,5.211v3.836h-5.176v5.177h5.176v14.05H14.644c-1.833,0-3.401-0.651-4.703-1.953S7.988,35.641,7.988,33.808z"/>
</g>
</svg>
