<?xml version="1.0" encoding="utf-8"?>
<!-- Generator: Adobe Illustrator 16.0.0, SVG Export Plug-In . SVG Version: 6.00 Build 0)  -->
<!DOCTYPE svg PUBLIC "-//W3C//DTD SVG 1.1//EN" "http://www.w3.org/Graphics/SVG/1.1/DTD/svg11.dtd" [
	<!ENTITY ns_flows "http://ns.adobe.com/Flows/1.0/">
	<!ENTITY ns_extend "http://ns.adobe.com/Extensibility/1.0/">
	<!ENTITY ns_ai "http://ns.adobe.com/AdobeIllustrator/10.0/">
	<!ENTITY ns_graphs "http://ns.adobe.com/Graphs/1.0/">
]>
<svg version="1.1" id="logo" xmlns:x="&ns_extend;" xmlns:i="&ns_ai;" xmlns:graph="&ns_graphs;"
	 xmlns="http://www.w3.org/2000/svg" xmlns:xlink="http://www.w3.org/1999/xlink" xmlns:a="http://ns.adobe.com/AdobeSVGViewerExtensions/3.0/"
	 x="0px" y="0px" width="152.667px" height="285.333px" viewBox="0 0 152.667 285.333" enable-background="new 0 0 152.667 285.333"
	 xml:space="preserve">
<linearGradient id="SVGID_1_" gradientUnits="userSpaceOnUse" x1="4.9561" y1="141.4487" x2="149.605" y2="141.4487">
	<stop  offset="0" style="stop-color:#8FCCD5"/>
	<stop  offset="0.5" style="stop-color:#5BBAC7"/>
	<stop  offset="1" style="stop-color:#00AAB9"/>
	<a:midPointStop  offset="0" style="stop-color:#8FCCD5"/>
	<a:midPointStop  offset="0.5" style="stop-color:#8FCCD5"/>
	<a:midPointStop  offset="0.5" style="stop-color:#5BBAC7"/>
	<a:midPointStop  offset="0.5" style="stop-color:#5BBAC7"/>
	<a:midPointStop  offset="1" style="stop-color:#00AAB9"/>
</linearGradient>
<path fill="url(#SVGID_1_)" d="M99.042,90.083c-0.5,1.625,15,30,15,30l24.5,42.25c5.25,8.375,9.375,25.5,9.375,25.5
	c10,55-27.704,77.005-27.704,77.005c-75.046,44.745-109.296-28.005-109.296-28.005c-18-46.75,10.5-83,10.5-83l21.25-37.5
	c35-57.375,33.625-134.75,35-107S99.042,90.083,99.042,90.083z"/>
<g>
	<path stroke="#000000" stroke-miterlimit="10" d="M40.667,194.416c0,3.252-1.159,6.011-3.479,8.276
		c0.387,0.503,0.769,0.842,1.146,1.016c0.377,0.174,0.961,0.281,1.754,0.319h0.58V206h-0.58c-1.972,0-3.519-0.638-4.64-1.914
		c-1.934,1.276-4.041,1.914-6.322,1.914c-3.189,0-5.916-1.132-8.178-3.397s-3.393-4.995-3.393-8.188s1.131-5.923,3.393-8.188
		s4.988-3.397,8.178-3.397c3.19,0,5.911,1.133,8.164,3.398C39.541,188.492,40.667,191.222,40.667,194.416z M38.551,194.328
		c0-2.614-0.924-4.845-2.77-6.695c-1.847-1.849-4.075-2.774-6.685-2.774c-2.61,0-4.839,0.925-6.685,2.774
		c-1.847,1.85-2.77,4.081-2.77,6.695s0.923,4.841,2.77,6.68c1.846,1.84,4.074,2.759,6.685,2.759c2.609,0,4.838-0.919,6.685-2.759
		C37.627,199.168,38.551,196.941,38.551,194.328z"/>
	<path stroke="#000000" stroke-miterlimit="10" d="M59.082,198.344c0,2.146-0.691,3.934-2.073,5.365
		c-1.382,1.431-3.127,2.146-5.234,2.146s-3.853-0.715-5.234-2.146c-1.383-1.431-2.073-3.219-2.073-5.365v-9.425h2.204v9.705
		c0,1.395,0.51,2.591,1.53,3.589c1.021,0.998,2.212,1.496,3.573,1.496s2.552-0.499,3.573-1.496c1.021-0.998,1.531-2.194,1.531-3.589
		v-9.705h2.203V198.344z"/>
	<path stroke="#000000" stroke-miterlimit="10" d="M80.367,197.938H65.52c0.174,1.663,0.88,3.036,2.117,4.118
		c1.237,1.083,2.697,1.614,4.379,1.595c2.61-0.039,4.476-1.247,5.597-3.625h2.35c-0.619,1.779-1.663,3.19-3.133,4.234
		c-1.469,1.044-3.103,1.576-4.9,1.595c-2.262,0.039-4.264-0.788-6.003-2.479c-1.74-1.691-2.63-3.707-2.668-6.046
		c-0.059-2.475,0.816-4.606,2.624-6.395c1.808-1.788,3.939-2.615,6.395-2.479c2.204,0.135,4.118,1.044,5.742,2.726
		c1.566,1.663,2.349,3.519,2.349,5.568V197.938z M78.192,195.908c-0.31-1.547-1.034-2.799-2.175-3.756s-2.504-1.445-4.089-1.464
		c-1.586-0.019-2.973,0.455-4.162,1.421c-1.188,0.967-1.938,2.233-2.247,3.799H78.192z"/>
	<path stroke="#000000" stroke-miterlimit="10" d="M98.638,205.449h-2.204v-9.657c0-1.392-0.511-2.59-1.531-3.596
		c-1.021-1.005-2.212-1.508-3.573-1.508c-1.38,0-2.581,0.503-3.602,1.508c-1.021,1.006-1.531,2.204-1.531,3.596v9.657h-2.204v-9.425
		c0-2.146,0.696-3.929,2.088-5.351c1.393-1.421,3.142-2.131,5.249-2.131c2.089,0,3.828,0.71,5.221,2.131
		c1.392,1.421,2.088,3.205,2.088,5.351V205.449z"/>
	<path stroke="#000000" stroke-miterlimit="10" d="M119.808,200.577l-0.232,0.493c-1.739,3.209-4.427,4.795-8.062,4.756
		c-2.397-0.019-4.466-0.86-6.206-2.523s-2.62-3.683-2.639-6.061c-0.039-2.397,0.816-4.452,2.566-6.163
		c1.749-1.711,3.843-2.585,6.278-2.625c1.74-0.019,3.364,0.435,4.872,1.363c1.431,0.89,2.455,2.011,3.074,3.364l0.318,0.725h-2.499
		c-1.239-2.146-3.138-3.248-5.694-3.306c-1.705-0.039-3.235,0.581-4.591,1.86c-1.415,1.318-2.121,2.878-2.121,4.68
		s0.658,3.347,1.976,4.636c1.316,1.289,2.877,1.923,4.678,1.904c2.576-0.039,4.504-1.073,5.782-3.103H119.808z"/>
	<path stroke="#000000" stroke-miterlimit="10" d="M137.236,205.449h-2.203v-9.628c0-1.392-0.518-2.595-1.551-3.61
		s-2.242-1.503-3.627-1.464c-1.404,0.02-2.588,0.488-3.555,1.406c-0.965,0.918-1.447,2.083-1.447,3.495v9.802h-2.204V183.09h2.204
		v8.178c1.26-1.643,2.879-2.513,4.855-2.61c2.053-0.097,3.822,0.58,5.305,2.03s2.223,3.238,2.223,5.365V205.449z"/>
</g>
<g>
	<path stroke="#000000" stroke-miterlimit="10" d="M64.288,236.041c-1.024,1.934-2.412,3.437-4.161,4.509
		c-1.75,1.073-3.736,1.629-5.96,1.667c-3.151,0.039-5.854-1.092-8.105-3.393s-3.378-5.046-3.378-8.236
		c0-3.287,1.131-6.022,3.393-8.207c2.204-2.165,4.901-3.238,8.091-3.219c2.224,0.02,4.244,0.59,6.062,1.711
		c1.74,1.102,3.093,2.581,4.06,4.437h-2.522c-1.856-2.707-4.447-4.041-7.772-4.002c-2.475,0-4.606,0.895-6.395,2.683
		s-2.711,3.939-2.77,6.452c-0.058,2.61,0.836,4.868,2.683,6.771c1.846,1.905,4.064,2.856,6.655,2.856
		c1.509,0,2.978-0.393,4.408-1.18c1.373-0.749,2.445-1.699,3.219-2.851H64.288z"/>
	<path stroke="#000000" stroke-miterlimit="10" d="M83.66,233.488v0.116v8.178h-2.204v-2.581c-1.791,2.049-3.986,3.035-6.586,2.958
		c-2.272-0.077-4.208-0.957-5.807-2.639s-2.397-3.683-2.397-6.003c0-2.417,0.86-4.49,2.581-6.221c1.721-1.73,3.779-2.547,6.177-2.45
		c2.32,0.077,4.292,0.962,5.916,2.653C82.964,229.192,83.737,231.188,83.66,233.488z M81.456,233.329
		c-0.039-1.744-0.659-3.236-1.86-4.476c-1.202-1.24-2.646-1.86-4.331-1.86c-1.764,0-3.266,0.62-4.506,1.86
		c-1.24,1.24-1.87,2.742-1.889,4.505c-0.039,1.744,0.538,3.271,1.729,4.578s2.631,2,4.316,2.078
		c1.821,0.077,3.376-0.557,4.665-1.904S81.494,235.169,81.456,233.329z"/>
	<path stroke="#000000" stroke-miterlimit="10" d="M94.071,227.283h-4.176v14.5h-2.204v-16.849c0-1.759,0.541-3.118,1.624-4.075
		c1.082-0.957,2.475-1.436,4.176-1.436h0.58v1.972h-0.584c-1.168,0.059-1.996,0.331-2.482,0.818
		c-0.74,0.779-1.109,1.558-1.109,2.337v0.701h4.176V227.283z"/>
	<path stroke="#000000" stroke-miterlimit="10" d="M112.253,234.271H97.405c0.174,1.663,0.88,3.036,2.117,4.118
		c1.237,1.083,2.697,1.614,4.379,1.595c2.61-0.039,4.476-1.247,5.597-3.625h2.35c-0.619,1.779-1.663,3.19-3.133,4.234
		c-1.469,1.044-3.103,1.576-4.9,1.595c-2.262,0.039-4.264-0.788-6.003-2.479c-1.74-1.691-2.63-3.707-2.668-6.046
		c-0.059-2.475,0.816-4.606,2.624-6.395c1.808-1.788,3.939-2.615,6.395-2.479c2.204,0.135,4.118,1.044,5.742,2.726
		c1.566,1.663,2.349,3.519,2.349,5.568V234.271z M110.078,232.242c-0.31-1.547-1.034-2.799-2.175-3.756s-2.504-1.445-4.089-1.464
		c-1.586-0.019-2.973,0.455-4.162,1.421c-1.188,0.967-1.938,2.233-2.247,3.799H110.078z"/>
</g>
</svg>
