<?xml version="1.0" encoding="utf-8"?>
<!-- Generator: Adobe Illustrator 16.0.0, SVG Export Plug-In . SVG Version: 6.00 Build 0)  -->
<!DOCTYPE svg PUBLIC "-//W3C//DTD SVG 1.1//EN" "http://www.w3.org/Graphics/SVG/1.1/DTD/svg11.dtd" [
	<!ENTITY ns_flows "http://ns.adobe.com/Flows/1.0/">
	<!ENTITY ns_extend "http://ns.adobe.com/Extensibility/1.0/">
	<!ENTITY ns_ai "http://ns.adobe.com/AdobeIllustrator/10.0/">
	<!ENTITY ns_graphs "http://ns.adobe.com/Graphs/1.0/">
]>
<svg version="1.1" id="logo" xmlns:x="&ns_extend;" xmlns:i="&ns_ai;" xmlns:graph="&ns_graphs;"
	 xmlns="http://www.w3.org/2000/svg" xmlns:xlink="http://www.w3.org/1999/xlink" xmlns:a="http://ns.adobe.com/AdobeSVGViewerExtensions/3.0/"
	 x="0px" y="0px" width="39.333px" height="66.666px" viewBox="0 0 39.333 66.666" enable-background="new 0 0 39.333 66.666"
	 xml:space="preserve">
<linearGradient id="SVGID_1_" gradientUnits="userSpaceOnUse" x1="5.9561" y1="32.1597" x2="34.5078" y2="32.1597">
	<stop  offset="0" style="stop-color:#8FCCD5"/>
	<stop  offset="0.5" style="stop-color:#5BBAC7"/>
	<stop  offset="1" style="stop-color:#00AAB9"/>
	<a:midPointStop  offset="0" style="stop-color:#8FCCD5"/>
	<a:midPointStop  offset="0.5" style="stop-color:#8FCCD5"/>
	<a:midPointStop  offset="0.5" style="stop-color:#5BBAC7"/>
	<a:midPointStop  offset="0.5" style="stop-color:#5BBAC7"/>
	<a:midPointStop  offset="1" style="stop-color:#00AAB9"/>
</linearGradient>
<path fill="url(#SVGID_1_)" d="M24.527,22.021c-0.099,0.321,2.96,5.922,2.96,5.922l4.836,8.34c1.036,1.653,1.85,5.033,1.85,5.033
	c1.974,10.856-5.468,15.2-5.468,15.2c-14.813,8.832-21.574-5.528-21.574-5.528C3.58,41.759,9.205,34.604,9.205,34.604l4.194-7.402
	c6.909-11.325,6.638-26.598,6.909-21.12C20.58,11.56,24.527,22.021,24.527,22.021z"/>
<g>
	<path stroke="#000000" stroke-width="0.1974" stroke-miterlimit="10" d="M13.624,42.22c0,0.643-0.229,1.187-0.687,1.634
		c0.076,0.1,0.151,0.166,0.226,0.201c0.075,0.034,0.19,0.055,0.347,0.062h0.114v0.39h-0.114c-0.39,0-0.694-0.126-0.916-0.378
		c-0.382,0.252-0.798,0.378-1.248,0.378c-0.629,0-1.167-0.224-1.614-0.671c-0.446-0.447-0.669-0.985-0.669-1.616
		c0-0.63,0.223-1.169,0.669-1.616c0.447-0.447,0.985-0.671,1.614-0.671c0.63,0,1.167,0.224,1.611,0.671
		C13.402,41.051,13.624,41.59,13.624,42.22z M13.206,42.203c0-0.516-0.182-0.956-0.546-1.321c-0.365-0.364-0.805-0.547-1.319-0.547
		c-0.516,0-0.955,0.183-1.32,0.547c-0.364,0.365-0.546,0.806-0.546,1.321c0,0.517,0.182,0.956,0.546,1.319
		c0.365,0.363,0.805,0.544,1.32,0.544c0.515,0,0.954-0.181,1.319-0.544C13.024,43.159,13.206,42.719,13.206,42.203z"/>
	<path stroke="#000000" stroke-width="0.1974" stroke-miterlimit="10" d="M16.92,42.996c0,0.424-0.136,0.777-0.409,1.06
		c-0.272,0.282-0.617,0.423-1.033,0.423s-0.76-0.141-1.033-0.423c-0.272-0.282-0.409-0.636-0.409-1.06v-1.86h0.436v1.916
		c0,0.275,0.101,0.512,0.302,0.708c0.201,0.197,0.437,0.296,0.705,0.296s0.504-0.099,0.705-0.296
		c0.202-0.196,0.303-0.433,0.303-0.708v-1.916h0.435V42.996z"/>
	<path stroke="#000000" stroke-width="0.1974" stroke-miterlimit="10" d="M20.785,42.916h-2.931c0.034,0.328,0.174,0.6,0.418,0.813
		c0.244,0.213,0.532,0.318,0.864,0.314c0.515-0.008,0.883-0.246,1.104-0.716h0.464c-0.122,0.352-0.328,0.63-0.618,0.836
		s-0.612,0.312-0.968,0.314c-0.446,0.008-0.841-0.155-1.185-0.489s-0.52-0.731-0.526-1.193c-0.012-0.488,0.161-0.909,0.518-1.262
		c0.356-0.354,0.777-0.517,1.263-0.49c0.435,0.027,0.812,0.207,1.133,0.538c0.31,0.329,0.464,0.695,0.464,1.1V42.916z
		 M20.355,42.515c-0.061-0.306-0.204-0.553-0.429-0.741c-0.226-0.189-0.494-0.285-0.808-0.289c-0.312-0.004-0.587,0.09-0.821,0.28
		s-0.383,0.44-0.443,0.75H20.355z"/>
	<path stroke="#000000" stroke-width="0.1974" stroke-miterlimit="10" d="M24.053,44.398h-0.435v-1.906
		c0-0.274-0.102-0.511-0.303-0.709c-0.201-0.199-0.437-0.298-0.705-0.298c-0.272,0-0.51,0.099-0.711,0.298
		c-0.202,0.198-0.303,0.435-0.303,0.709v1.906h-0.435v-1.86c0-0.423,0.138-0.775,0.412-1.056s0.62-0.421,1.036-0.421
		c0.412,0,0.756,0.141,1.03,0.421s0.412,0.633,0.412,1.056V44.398z"/>
	<path stroke="#000000" stroke-width="0.1974" stroke-miterlimit="10" d="M27.894,43.437l-0.046,0.097
		c-0.344,0.634-0.874,0.946-1.592,0.939c-0.473-0.004-0.881-0.17-1.225-0.498s-0.518-0.728-0.521-1.196
		c-0.008-0.474,0.161-0.879,0.506-1.217c0.346-0.338,0.759-0.511,1.239-0.519c0.344-0.003,0.664,0.086,0.962,0.27
		c0.282,0.176,0.484,0.396,0.606,0.664l0.063,0.143h-0.493c-0.245-0.423-0.619-0.641-1.124-0.652
		c-0.337-0.008-0.639,0.115-0.906,0.367c-0.279,0.261-0.419,0.568-0.419,0.924s0.13,0.661,0.39,0.915
		c0.261,0.255,0.568,0.38,0.924,0.376c0.509-0.008,0.889-0.212,1.142-0.612H27.894z"/>
	<path stroke="#000000" stroke-width="0.1974" stroke-miterlimit="10" d="M30.997,44.398h-0.435v-1.9
		c0-0.274-0.103-0.512-0.307-0.712c-0.204-0.201-0.442-0.297-0.716-0.289c-0.277,0.003-0.511,0.096-0.701,0.277
		c-0.19,0.181-0.286,0.411-0.286,0.689v1.935h-0.435v-4.413h0.435v1.614c0.249-0.324,0.568-0.496,0.958-0.515
		c0.406-0.02,0.755,0.114,1.048,0.4c0.292,0.286,0.438,0.639,0.438,1.059V44.398z"/>
</g>
<g>
	<path stroke="#000000" stroke-width="0.1974" stroke-miterlimit="10" d="M18.077,50.436c-0.203,0.382-0.477,0.679-0.822,0.891
		s-0.737,0.321-1.176,0.329c-0.622,0.008-1.155-0.216-1.6-0.67c-0.444-0.454-0.667-0.996-0.667-1.626
		c0-0.648,0.223-1.188,0.669-1.62c0.435-0.427,0.968-0.639,1.597-0.635c0.439,0.004,0.838,0.116,1.196,0.338
		c0.344,0.217,0.611,0.509,0.802,0.875h-0.498c-0.367-0.534-0.878-0.797-1.534-0.789c-0.489,0-0.909,0.176-1.262,0.529
		c-0.353,0.353-0.535,0.777-0.547,1.273c-0.011,0.516,0.165,0.961,0.53,1.337c0.364,0.376,0.802,0.563,1.313,0.563
		c0.298,0,0.588-0.077,0.87-0.233c0.271-0.147,0.483-0.335,0.635-0.562H18.077z"/>
	<path stroke="#000000" stroke-width="0.1974" stroke-miterlimit="10" d="M21.305,49.932v0.023v1.614H20.87v-0.51
		c-0.354,0.404-0.787,0.6-1.3,0.584c-0.448-0.015-0.831-0.188-1.146-0.521s-0.473-0.728-0.473-1.186c0-0.477,0.17-0.886,0.509-1.228
		c0.34-0.342,0.746-0.503,1.219-0.483c0.458,0.015,0.847,0.189,1.168,0.523C21.167,49.084,21.32,49.478,21.305,49.932z
		 M20.87,49.901c-0.008-0.344-0.13-0.639-0.367-0.884c-0.237-0.244-0.522-0.367-0.855-0.367c-0.348,0-0.645,0.123-0.889,0.367
		c-0.245,0.245-0.369,0.542-0.373,0.89c-0.008,0.345,0.106,0.646,0.341,0.903c0.235,0.259,0.519,0.396,0.852,0.41
		c0.359,0.016,0.667-0.109,0.921-0.375C20.754,50.579,20.877,50.264,20.87,49.901z"/>
	<path stroke="#000000" stroke-width="0.1974" stroke-miterlimit="10" d="M23.022,48.708h-0.824v2.862h-0.435v-3.326
		c0-0.347,0.106-0.615,0.32-0.804c0.214-0.189,0.489-0.283,0.824-0.283h0.115v0.389h-0.115c-0.231,0.012-0.394,0.065-0.49,0.162
		c-0.146,0.153-0.219,0.308-0.219,0.461v0.139h0.824V48.708z"/>
	<path stroke="#000000" stroke-width="0.1974" stroke-miterlimit="10" d="M26.273,50.087h-2.931
		c0.034,0.328,0.174,0.599,0.418,0.812s0.532,0.318,0.864,0.314c0.515-0.007,0.883-0.246,1.105-0.715h0.463
		c-0.122,0.351-0.328,0.63-0.618,0.836s-0.612,0.311-0.967,0.314c-0.446,0.008-0.841-0.155-1.185-0.489
		c-0.343-0.334-0.519-0.732-0.526-1.193c-0.012-0.489,0.161-0.909,0.518-1.263c0.356-0.353,0.777-0.516,1.262-0.489
		c0.435,0.026,0.812,0.206,1.133,0.538c0.309,0.328,0.463,0.694,0.463,1.099V50.087z M25.844,49.686
		c-0.061-0.305-0.204-0.552-0.429-0.741c-0.225-0.188-0.494-0.285-0.807-0.289s-0.587,0.09-0.821,0.281
		c-0.235,0.19-0.383,0.44-0.444,0.749H25.844z"/>
</g>
</svg>
